<svg xmlns="http://www.w3.org/2000/svg" viewBox="0 0 1000 287.6"><defs><style>.cls-1{fill:#f5f3ef;}</style></defs><g id="레이어_2" data-name="레이어 2"><g id="svg1936"><path id="flowRoot2383" class="cls-1" d="M0,287.6H82.45V79.5h47.17V287.6h82.12V79.5h47.17V287.6H341V68.27q0-17.47-5.28-30.17a56.38,56.38,0,0,0-15.17-21.27A66,66,0,0,0,296,4.13,117.58,117.58,0,0,0,263.52,0H77.5A117.55,117.55,0,0,0,45,4.13a63,63,0,0,0-24.25,12.7A54.84,54.84,0,0,0,5.27,38.1Q0,50.81,0,68.27ZM998.68,0H795.85Q777.37,0,763,4.79T739.12,18.15a57.55,57.55,0,0,0-14.51,21.6,77.09,77.09,0,0,0-5,28.2v152.7A76.67,76.67,0,0,0,724.11,247a55.28,55.28,0,0,0,13.69,21.11q9.23,9.23,23.91,14.34t35.46,5.11H1000V209.44H804.76V78.83H998.68ZM696.57,210.76q0-20.44-7.91-35.13a65.06,65.06,0,0,0-22.1-23.91q-14.19-9.24-33.64-13.52a196.11,196.11,0,0,0-42.22-4.29,148.3,148.3,0,0,0,31.66-3.46,91.65,91.65,0,0,0,28.7-11.38,62.31,62.31,0,0,0,20.45-20q7.9-12.36,7.91-30.17,0-17.49-6.43-30.35a57.21,57.21,0,0,0-18.63-21.44q-12.21-8.58-29.52-12.7A180.14,180.14,0,0,0,586.09,0H384.89V287.6H587.73A201.6,201.6,0,0,0,629,283.48a109.56,109.56,0,0,0,35-13.36,71.6,71.6,0,0,0,23.75-23.9q8.9-14.68,8.9-35.46ZM590.7,209.11h-122v-130h122Z"/></g></g></svg>
